# Blender 3.6.4
# www.blender.org
mtllib shaperoo.mtl
o Cube
v 1.000000 -1.000000 -1.000000
v 1.000000 -1.000000 1.000000
v -1.000000 1.000000 -1.000000
v -1.000000 -1.000000 -1.000000
v -1.000000 1.000000 1.000000
v -1.000000 -1.000000 1.000000
v -0.984190 1.000000 -1.000000
v 1.000000 -0.984190 -1.000000
v 1.000000 -0.984190 1.000000
v -0.984190 1.000000 1.000000
vn -0.0000 -0.0000 1.0000
vn -1.0000 -0.0000 -0.0000
vn -0.0000 -1.0000 -0.0000
vn -0.0000 1.0000 -0.0000
vn 1.0000 -0.0000 -0.0000
vn 0.7071 0.7071 -0.0000
vn -0.0000 -0.0000 -1.0000
vt 0.375000 0.750000
vt 0.376976 0.750000
vt 0.625000 0.998024
vt 0.625000 1.000000
vt 0.375000 1.000000
vt 0.375000 0.000000
vt 0.625000 0.000000
vt 0.625000 0.250000
vt 0.375000 0.250000
vt 0.125000 0.500000
vt 0.375000 0.500000
vt 0.125000 0.750000
vt 0.873024 0.500000
vt 0.875000 0.500000
vt 0.875000 0.750000
vt 0.873024 0.750000
vt 0.376976 0.500000
vt 0.625000 0.251976
s 0
usemtl Material
f 2/1/1 9/2/1 10/3/1 5/4/1 6/5/1
f 6/6/2 5/7/2 3/8/2 4/9/2
f 4/10/3 1/11/3 2/1/3 6/12/3
f 7/13/4 3/14/4 5/15/4 10/16/4
f 1/11/5 8/17/5 9/2/5 2/1/5
f 7/13/6 10/16/6 9/2/6 8/17/6
f 4/9/7 3/8/7 7/18/7 8/17/7 1/11/7
